<?xml version="1.0" standalone="no"?>
<!DOCTYPE svg PUBLIC "-//W3C//DTD SVG 20010904//EN"
 "http://www.w3.org/TR/2001/REC-SVG-20010904/DTD/svg10.dtd">
<svg version="1.0" xmlns="http://www.w3.org/2000/svg"
 width="200.000000pt" height="200.000000pt" viewBox="0 0 200.000000 200.000000"
 preserveAspectRatio="xMidYMid meet">
<metadata>
Created by potrace 1.11, written by Peter Selinger 2001-2013
</metadata>
<g transform="translate(0.000000,200.000000) scale(0.100000,-0.100000)"
fill="#000000" stroke="none">
<path d="M1505 1941 c-45 -11 -71 -28 -95 -61 l-22 -30 -45 40 c-49 43 -91 56
-150 46 -45 -7 -45 -7 -104 0 -42 5 -50 3 -80 -24 l-33 -30 -33 25 c-35 27
-101 37 -143 21 -14 -5 -42 -23 -62 -39 -31 -24 -42 -28 -57 -19 -11 5 -32 10
-46 10 -54 0 -127 -76 -130 -134 -1 -33 -39 -86 -61 -86 -28 0 -82 -34 -98
-62 -10 -16 -19 -52 -20 -81 -2 -41 -10 -64 -40 -109 -47 -71 -58 -132 -28
-164 14 -14 17 -26 11 -35 -35 -54 -30 -124 12 -158 19 -15 19 -18 4 -56 -32
-74 0 -144 76 -167 l38 -11 -4 -71 c-1 -39 -6 -96 -9 -126 -4 -30 -8 -69 -10
-85 -1 -17 -8 -40 -14 -51 -6 -12 -8 -24 -5 -28 3 -3 0 -6 -8 -6 -10 -1 -8 -5
5 -15 17 -13 21 -12 33 3 13 15 13 15 3 -6 -9 -18 -15 -20 -29 -12 -23 12 -36
-11 -18 -29 8 -8 8 -11 -1 -11 -10 0 -10 -5 -2 -21 6 -11 13 -30 15 -41 4 -18
58 -75 108 -116 22 -16 37 -15 37 4 0 8 -4 13 -8 10 -4 -2 -14 0 -22 5 -11 7
-8 8 10 5 18 -2 25 -9 25 -26 0 -14 9 -26 23 -31 12 -5 22 -5 22 -2 0 4 6 -1
13 -10 6 -10 26 -19 44 -21 17 -3 39 -9 50 -14 25 -13 106 -24 99 -14 -2 4 0
14 5 22 9 13 10 13 8 0 -4 -41 21 -55 50 -28 10 11 15 9 26 -5 12 -17 14 -15
35 18 12 19 25 33 30 30 5 -3 11 1 13 7 4 10 6 10 6 0 1 -7 6 -10 13 -6 6 4 8
3 4 -4 -3 -6 -15 -9 -25 -7 -11 2 -24 -7 -35 -26 -19 -32 -14 -38 12 -13 14
15 17 15 29 -2 12 -16 16 -17 34 -6 16 10 19 10 13 1 -5 -9 -2 -10 9 -6 10 3
17 3 17 -2 0 -5 16 -16 36 -26 46 -22 93 -13 137 23 38 33 85 55 98 47 5 -4 9
-1 9 5 0 6 4 9 9 6 4 -3 26 3 47 13 31 15 35 20 19 24 -16 4 -16 5 -3 6 9 0
20 -4 23 -9 4 -7 11 -6 20 2 33 30 45 38 45 32 0 -3 6 -1 14 6 8 6 12 19 9 28
-4 14 -3 15 6 2 8 -12 15 -10 39 15 55 56 71 102 44 124 -16 13 -16 13 1 8 15
-6 17 -2 13 21 -2 15 -5 28 -6 30 -2 1 -3 5 -4 10 -1 4 -8 18 -15 31 -16 28
-67 84 -56 61 4 -8 -2 -4 -13 9 -12 15 -24 21 -32 16 -9 -6 -11 -4 -5 5 4 7 2
16 -6 21 -10 6 -2 9 22 9 35 0 89 31 89 51 0 5 29 38 65 73 39 39 65 72 65 85
0 15 6 21 23 21 77 0 157 55 190 130 38 85 26 268 -26 415 -8 22 -13 55 -11
74 3 46 -13 77 -47 91 -38 16 -57 48 -52 87 3 17 1 39 -5 49 -7 13 -3 28 19
62 16 25 32 60 35 78 6 33 -10 99 -27 109 -11 7 -45 -11 -78 -41 -31 -29 -38
-30 -45 -6 -16 49 -79 77 -141 63z m-945 -1226 c14 4 20 2 20 -9 0 -9 9 -25
20 -36 11 -11 19 -20 18 -21 -2 0 -12 -2 -22 -4 -10 -2 -22 -8 -25 -14 -9 -14
-24 -2 -49 42 -28 48 -28 61 -2 47 12 -6 30 -8 40 -5z m115 -95 c3 -6 -1 -7
-9 -4 -18 7 -21 14 -7 14 6 0 13 -4 16 -10z m6 -35 c12 2 14 -3 10 -24 -5 -25
-6 -25 -9 -3 -2 12 -8 20 -13 17 -5 -4 -12 1 -15 9 -3 9 -9 14 -13 11 -4 -2
-8 3 -8 12 0 13 3 12 16 -4 9 -11 24 -19 32 -18z m-72 15 c-6 -5 -18 -6 -26
-3 -19 8 -16 11 13 11 17 0 22 -3 13 -8z m32 -35 c3 2 6 -6 6 -17 2 -20 0 -20
-16 5 -10 15 -21 24 -26 20 -4 -5 -5 -2 0 6 7 12 10 11 20 -2 7 -9 14 -15 16
-12z m-16 -36 c-4 -5 -12 -9 -18 -8 -9 0 -8 2 1 6 6 2 9 10 6 15 -4 7 -2 8 5
4 6 -4 9 -12 6 -17z m74 -9 c-6 -5 -18 -6 -26 -3 -19 8 -16 11 13 11 17 0 22
-3 13 -8z m637 -2 c3 -4 -1 -5 -10 -4 -8 1 -18 5 -22 8 -3 4 1 5 10 4 8 -1 18
-5 22 -8z m-710 -37 c-4 -6 -13 -11 -19 -10 -9 0 -9 2 1 6 6 2 12 9 12 14 0 6
-5 7 -12 3 -7 -5 -8 -3 -3 5 5 9 11 9 17 3 6 -6 7 -15 4 -21z m40 20 c-4 -5
-2 -11 3 -13 5 -1 3 -9 -5 -16 -12 -11 -13 -9 -10 10 6 30 5 28 12 28 3 0 3
-4 0 -9z m47 3 c-7 -3 -9 -12 -6 -20 3 -8 1 -14 -5 -14 -8 0 -9 16 -3 38 1 1
7 2 14 1 9 0 9 -2 0 -5z m42 -12 c-3 -3 -11 0 -18 7 -9 10 -8 11 6 5 10 -3 15
-9 12 -12z m201 6 c5 -7 3 -8 -6 -3 -10 6 -12 4 -7 -8 3 -10 2 -17 -3 -17 -11
0 -13 23 -3 33 9 9 11 9 19 -5z m349 3 c3 -5 0 -13 -6 -17 -7 -4 -9 -3 -5 4 3
5 0 13 -6 15 -9 4 -10 6 -1 6 6 1 14 -3 18 -8z m185 -1 c0 -5 -2 -10 -4 -10
-3 0 -8 5 -11 10 -3 6 -1 10 4 10 6 0 11 -4 11 -10z m11 -23 c-10 -9 -11 -8
-5 6 3 10 9 15 12 12 3 -3 0 -11 -7 -18z m-756 -5 c-3 -3 -11 0 -18 7 -9 10
-8 11 6 5 10 -3 15 -9 12 -12z m40 8 c3 -5 1 -10 -4 -10 -6 0 -11 5 -11 10 0
6 2 10 4 10 3 0 8 -4 11 -10z m380 -8 c-3 -3 -11 0 -18 7 -9 10 -8 11 6 5 10
-3 15 -9 12 -12z m54 4 c9 -11 9 -16 0 -22 -8 -4 -9 -3 -5 4 4 7 2 12 -3 12
-6 0 -11 5 -11 10 0 14 5 13 19 -4z m-307 -10 c7 4 8 2 4 -5 -9 -13 -26 -5
-25 12 0 9 2 8 6 -1 2 -6 10 -9 15 -6z m-230 -38 c9 2 18 -1 21 -5 3 -5 -6 -8
-19 -8 -23 1 -53 29 -54 50 0 6 8 -1 18 -15 9 -15 24 -24 34 -22z m18 26 c0
-2 -7 -4 -15 -4 -8 0 -15 4 -15 10 0 5 7 7 15 4 8 -4 15 -8 15 -10z m167 -15
c1 -20 1 -21 -3 -3 -4 15 -11 20 -23 17 -10 -3 -21 -1 -24 4 -3 5 7 8 21 7 21
0 27 -6 29 -25z m221 6 c0 -14 -4 -25 -7 -25 -4 0 -7 11 -7 25 0 14 3 25 7 25
3 0 7 -11 7 -25z m59 -6 c-3 -12 2 -19 17 -23 17 -3 16 -4 -4 -3 -21 2 -24 6
-22 27 3 20 1 23 -9 13 -7 -7 -17 -13 -23 -13 -5 0 -1 6 9 14 24 17 38 10 32
-15z m49 19 c5 -7 3 -8 -6 -3 -10 6 -12 4 -7 -8 3 -10 2 -17 -3 -17 -11 0 -13
23 -3 33 9 9 11 9 19 -5z m52 -14 c0 -17 -3 -22 -8 -13 -5 6 -6 18 -3 26 8 19
11 16 11 -13z m62 0 c0 -8 -4 -14 -10 -14 -5 0 -6 7 -3 17 5 12 3 14 -7 8 -9
-5 -11 -4 -6 4 9 14 26 5 26 -15z m225 16 c3 -6 -1 -7 -9 -4 -18 7 -21 14 -7
14 6 0 13 -4 16 -10z m-813 -22 c-7 -7 -12 -8 -12 -2 0 14 12 26 19 19 2 -3
-1 -11 -7 -17z m41 9 c3 -8 2 -20 -3 -26 -5 -9 -7 -4 -7 13 0 29 2 32 10 13z
m47 -8 c0 -6 -4 -7 -10 -4 -5 3 -10 11 -10 16 0 6 5 7 10 4 6 -3 10 -11 10
-16z m-190 3 c0 -5 -7 -9 -15 -9 -8 0 -12 4 -9 9 3 4 9 8 15 8 5 0 9 -4 9 -8z
m280 -12 c6 -11 8 -20 6 -20 -3 0 -10 9 -16 20 -6 11 -8 20 -6 20 3 0 10 -9
16 -20z m50 5 c0 -2 -9 -3 -19 -2 -11 0 -18 5 -15 9 4 6 34 0 34 -7z m251 -18
c-10 -9 -11 -8 -5 6 3 10 9 15 12 12 3 -3 0 -11 -7 -18z m83 7 c3 -8 2 -12 -4
-9 -6 3 -10 10 -10 16 0 14 7 11 14 -7z m-883 -17 c-10 -9 -11 -8 -5 6 3 10 9
15 12 12 3 -3 0 -11 -7 -18z m184 13 c4 -6 1 -9 -7 -8 -8 2 -12 -4 -10 -15 3
-17 2 -17 -17 0 -25 21 -26 24 -7 17 8 -3 17 -1 21 5 8 14 12 14 20 1z m57
-36 c-6 -12 -9 -7 -9 16 0 23 3 28 9 16 5 -9 5 -23 0 -32z m154 34 c4 -7 3 -8
-4 -4 -7 4 -12 3 -12 -3 0 -5 6 -12 13 -14 9 -4 9 -6 0 -6 -15 -1 -26 16 -18
29 8 13 12 13 21 -2z m54 2 c0 -5 -6 -7 -13 -4 -8 3 -13 -3 -13 -16 0 -15 6
-20 21 -18 15 2 20 -3 22 -22 2 -21 1 -22 -5 -5 -4 11 -16 20 -27 20 -17 0
-23 18 -16 50 2 9 31 5 31 -5z m477 -4 c0 -8 -6 -12 -15 -9 -11 5 -11 7 0 14
7 5 13 9 14 9 0 0 1 -6 1 -14z m220 -1 c0 -8 -4 -12 -9 -9 -5 3 -6 10 -3 15 9
13 12 11 12 -6z m-620 -27 c-3 -7 -5 -2 -5 12 0 14 2 19 5 13 2 -7 2 -19 0
-25z m-537 -3 c0 -2 -6 -7 -12 -11 -7 -4 -10 -4 -6 1 4 4 0 14 -10 22 -15 13
-15 13 6 3 12 -6 22 -13 22 -15z m48 11 c-10 -7 -14 -17 -10 -21 4 -5 1 -5 -7
0 -12 7 -11 10 4 22 24 17 36 17 13 -1z m170 0 c-7 -8 -15 -12 -17 -11 -5 6
10 25 20 25 5 0 4 -6 -3 -14z m96 -18 c-4 -5 -15 -8 -25 -5 -11 3 -19 -1 -22
-12 -3 -10 -4 -9 -3 4 1 15 7 19 26 17 22 -4 23 -2 10 15 -14 16 -14 17 2 4
10 -7 15 -18 12 -23z m36 22 c0 -5 -4 -10 -10 -10 -5 0 -10 5 -10 10 0 6 5 10
10 10 6 0 10 -4 10 -10z m147 -13 c1 -11 1 -18 0 -16 -2 2 -8 11 -15 20 -9 12
-9 16 1 16 7 0 14 -9 14 -20z m223 19 c0 -2 -7 -7 -16 -10 -8 -3 -12 -2 -9 4
6 10 25 14 25 6z m120 0 c0 -2 -7 -7 -16 -10 -8 -3 -12 -2 -9 4 6 10 25 14 25
6z m19 -14 c-15 -9 -25 -25 -23 -34 1 -10 -3 -21 -8 -25 -7 -3 -8 -1 -4 5 6
11 -5 16 -26 13 -4 0 -4 7 -1 16 4 11 8 13 11 5 4 -14 23 -17 20 -3 -3 11 31
40 47 41 6 0 -2 -8 -16 -18z m-785 -4 c-5 -8 -2 -9 9 -5 10 3 17 2 17 -3 0
-12 -27 -13 -34 -1 -3 4 -3 11 1 15 10 10 15 7 7 -6z m505 -18 c11 -24 11 -24
-3 -6 -9 11 -16 24 -16 30 0 12 5 7 19 -24z m316 20 c-3 -5 -12 -10 -18 -10
-7 0 -6 4 3 10 19 12 23 12 15 0z m-159 -18 c1 -7 0 -8 -3 -2 -2 5 -9 10 -14
10 -6 0 -8 -4 -4 -9 3 -5 1 -12 -4 -15 -8 -5 -8 5 -2 32 2 9 25 -6 27 -16z
m199 8 c3 -6 -1 -7 -9 -4 -18 7 -21 14 -7 14 6 0 13 -4 16 -10z m-157 -26 c0
-17 -3 -22 -8 -13 -5 6 -6 18 -3 26 8 19 11 16 11 -13z m-793 -2 c-3 -3 -11 0
-18 7 -9 10 -8 11 6 5 10 -3 15 -9 12 -12z m95 3 c0 -1 -12 -2 -26 -2 -17 0
-22 2 -13 7 10 7 39 3 39 -5z m36 -1 c-3 -19 -36 -41 -36 -24 0 5 7 10 15 10
8 0 14 3 14 8 -2 11 1 22 5 22 2 0 3 -7 2 -16z m103 6 c-6 -5 -18 -6 -26 -3
-19 8 -16 11 13 11 17 0 22 -3 13 -8z m121 -11 c0 -6 -4 -7 -10 -4 -5 3 -10
11 -10 16 0 6 5 7 10 4 6 -3 10 -11 10 -16z m37 6 c0 -8 -4 -15 -9 -15 -4 0
-8 7 -8 15 0 8 4 15 8 15 5 0 9 -7 9 -15z m35 -7 c-7 -7 -12 -8 -12 -2 0 14
12 26 19 19 2 -3 -1 -11 -7 -17z m137 12 c-6 -5 -18 -6 -26 -3 -19 8 -16 11
13 11 17 0 22 -3 13 -8z m325 -5 c-4 -8 -8 -15 -10 -15 -2 0 -4 7 -4 15 0 8 4
15 10 15 5 0 7 -7 4 -15z m44 -2 c-3 -17 -38 -28 -38 -11 0 6 7 7 16 4 12 -4
15 -2 10 9 -3 8 -1 15 5 15 6 0 9 -7 7 -17z m-898 -13 c0 -5 -4 -10 -10 -10
-5 0 -10 5 -10 10 0 6 5 10 10 10 6 0 10 -4 10 -10z m120 -10 c-14 -11 -29
-20 -35 -20 -5 0 4 9 20 20 38 25 48 25 15 0z m56 -3 c1 -9 -2 -17 -8 -17 -6
0 -8 6 -5 14 3 8 2 17 -4 20 -5 2 -4 3 2 2 7 -1 13 -10 15 -19z m41 -8 c2 -16
1 -18 -11 -7 -8 7 -10 15 -5 16 5 2 6 9 2 15 -3 7 -2 9 2 4 5 -4 10 -17 12
-28z m78 22 c3 -5 0 -13 -6 -17 -8 -5 -9 -3 -4 6 6 10 4 12 -8 7 -10 -3 -17
-2 -17 3 0 13 27 13 35 1z m145 -1 c0 -5 -6 -7 -14 -4 -11 4 -13 0 -9 -14 2
-11 1 -22 -4 -25 -6 -4 -9 33 -4 51 3 7 31 0 31 -8z m53 -5 c-3 -9 -8 -14 -10
-11 -3 3 -2 9 2 15 9 16 15 13 8 -4z m62 5 c4 -6 -1 -7 -11 -3 -13 5 -15 3 -9
-7 5 -9 4 -11 -4 -6 -6 4 -9 12 -6 17 8 12 22 12 30 -1z m181 -9 c1 -6 0 -7
-2 -2 -3 6 -12 7 -20 4 -8 -3 -14 -1 -14 5 0 14 33 8 36 -7z m-698 -16 c0 -14
-1 -25 -2 -23 -1 2 -8 12 -16 22 -10 13 -10 17 -2 12 6 -4 12 -2 12 3 0 6 2
11 4 11 2 0 4 -11 4 -25z m-48 0 c0 -2 -6 -5 -13 -8 -8 -3 -14 1 -14 8 0 7 6
11 14 8 7 -3 13 -6 13 -8z m155 5 c-3 -5 -12 -10 -18 -10 -7 0 -6 4 3 10 19
12 23 12 15 0z m120 -8 c-3 -3 -11 0 -18 7 -9 10 -8 11 6 5 10 -3 15 -9 12
-12z m65 8 c-8 -5 -19 -10 -25 -10 -5 0 -3 5 5 10 8 5 20 10 25 10 6 0 3 -5
-5 -10z m29 -8 c-15 -9 -25 -25 -23 -34 1 -10 -3 -21 -8 -25 -7 -3 -8 -1 -4 5
4 7 1 12 -6 12 -9 0 -9 3 2 10 8 5 11 10 5 10 -13 1 36 40 50 40 6 0 -2 -8
-16 -18z m106 8 c3 -5 1 -10 -4 -10 -6 0 -11 5 -11 10 0 6 2 10 4 10 3 0 8 -4
11 -10z m50 0 c3 -5 1 -10 -4 -10 -6 0 -11 5 -11 10 0 6 2 10 4 10 3 0 8 -4
11 -10z m265 0 c-8 -5 -19 -10 -25 -10 -5 0 -3 5 5 10 8 5 20 10 25 10 6 0 3
-5 -5 -10z m75 -11 c-4 -5 -2 -9 4 -9 5 0 12 5 14 10 3 6 4 5 3 -2 -4 -19 -29
-16 -32 5 -1 9 2 15 7 11 5 -3 7 -10 4 -15z m70 3 c-3 -3 -11 0 -18 7 -9 10
-8 11 6 5 10 -3 15 -9 12 -12z m-530 -2 c-3 -5 -12 -10 -18 -10 -7 0 -6 4 3
10 19 12 23 12 15 0z m419 -6 c3 -8 2 -12 -4 -9 -6 3 -10 10 -10 16 0 14 7 11
14 -7z m-797 -24 c-2 -11 -6 -22 -10 -26 -3 -4 -4 5 -1 20 3 21 1 24 -13 20
-15 -5 -15 -4 -3 4 19 14 30 6 27 -18z m183 20 c0 -5 -8 -10 -17 -10 -15 0
-16 2 -3 10 19 12 20 12 20 0z m105 -8 c-3 -3 -11 0 -18 7 -9 10 -8 11 6 5 10
-3 15 -9 12 -12z m133 -8 c0 -17 -3 -22 -8 -13 -5 6 -6 18 -3 26 8 19 11 16
11 -13z m58 -2 c-2 -9 8 -25 22 -34 24 -16 24 -17 5 -15 -12 0 -20 4 -17 8 2
4 -3 10 -12 13 -8 3 -12 10 -9 16 3 5 2 10 -4 10 -5 0 -11 -5 -13 -12 -3 -8
-7 -6 -11 5 -3 9 -3 16 1 16 21 -3 32 2 26 13 -4 6 -3 8 4 5 5 -4 9 -15 8 -25z
m74 12 c0 -2 -7 -4 -15 -4 -8 0 -15 4 -15 10 0 5 7 7 15 4 8 -4 15 -8 15 -10z
m168 4 c-2 -8 5 -12 17 -10 16 2 17 1 5 -7 -9 -7 -19 -6 -27 1 -15 12 -17 28
-3 28 6 0 9 -6 8 -12z m56 -4 c3 -8 2 -12 -4 -9 -6 3 -10 10 -10 16 0 14 7 11
14 -7z m-714 -4 c0 -5 -8 -10 -17 -10 -15 0 -16 2 -3 10 19 12 20 12 20 0z
m38 -16 c0 -17 -3 -22 -8 -13 -5 6 -6 18 -3 26 8 19 11 16 11 -13z m42 5 c0
-6 -4 -7 -10 -4 -5 3 -10 11 -10 16 0 6 5 7 10 4 6 -3 10 -11 10 -16z m374 6
c3 -8 1 -15 -4 -15 -6 0 -10 7 -10 15 0 8 2 15 4 15 2 0 6 -7 10 -15z m-308
-10 c-8 -9 -19 -15 -23 -15 -4 1 -11 -9 -15 -22 l-6 -23 -1 23 c-1 15 -5 21
-13 16 -6 -4 -8 -3 -4 4 3 6 15 9 25 7 11 -2 22 3 25 11 3 8 10 14 16 14 7 0
5 -7 -4 -15z m74 0 c0 -1 -12 -2 -26 -2 -17 0 -22 2 -13 7 10 7 39 3 39 -5z
m74 0 c-4 -8 -8 -15 -10 -15 -2 0 -4 7 -4 15 0 8 4 15 10 15 5 0 7 -7 4 -15z
m486 0 c0 -1 -12 -2 -26 -2 -17 0 -22 2 -13 7 10 7 39 3 39 -5z m70 3 c0 -4
-7 -8 -15 -8 -8 0 -15 4 -15 8 0 5 7 9 15 9 8 0 15 -4 15 -9z m-538 -20 c-7
-7 -12 -8 -12 -2 0 14 12 26 19 19 2 -3 -1 -11 -7 -17z m-344 -2 c-10 -7 -14
-17 -10 -21 4 -5 1 -5 -7 0 -12 7 -11 10 4 22 24 17 36 17 13 -1z m72 -41 c0
-11 -14 7 -31 40 -7 13 -3 12 10 -5 11 -14 21 -29 21 -35z m117 35 c-1 -11 -5
-20 -9 -20 -10 0 -10 4 -2 24 8 22 13 20 11 -4z m563 10 c0 -5 -4 -10 -10 -10
-5 0 -10 5 -10 10 0 6 5 10 10 10 6 0 10 -4 10 -10z m160 0 c0 -5 -4 -10 -10
-10 -5 0 -10 5 -10 10 0 6 5 10 10 10 6 0 10 -4 10 -10z m55 0 c3 -5 1 -10 -4
-10 -6 0 -11 5 -11 10 0 6 2 10 4 10 3 0 8 -4 11 -10z m75 4 c0 -8 -19 -13
-24 -6 -3 5 1 9 9 9 8 0 15 -2 15 -3z m-813 -24 c1 -16 -1 -17 -12 -7 -11 10
-8 19 10 27 1 0 1 -9 2 -20z m48 -9 c-6 -5 -25 10 -25 20 0 5 6 4 14 -3 8 -7
12 -15 11 -17z m555 19 c0 -5 -4 -10 -10 -10 -5 0 -10 5 -10 10 0 6 5 10 10
10 6 0 10 -4 10 -10z m-727 -14 c4 -10 1 -13 -9 -9 -15 6 -19 23 -5 23 5 0 11
-7 14 -14z m240 1 l22 18 -19 -22 c-20 -24 -37 -22 -35 5 1 15 2 14 6 -1 5
-18 5 -18 26 0z m379 -7 c-2 -8 3 -10 13 -7 8 4 15 2 15 -4 0 -6 -7 -9 -16 -7
-8 2 -14 7 -14 12 1 5 -4 13 -12 18 -10 8 -10 9 2 5 8 -2 14 -10 12 -17z m153
10 c-3 -5 -11 -10 -16 -10 -6 0 -7 5 -4 10 3 6 11 10 16 10 6 0 7 -4 4 -10z
m80 -3 c14 -11 15 -16 5 -22 -9 -5 -11 -4 -6 3 4 7 5 12 2 12 -2 0 -12 3 -21
6 -10 4 -15 2 -13 -7 2 -7 -5 -15 -14 -17 -10 -2 -18 1 -18 7 0 6 7 8 15 4 9
-3 15 -2 14 3 -5 27 8 31 36 11z m-755 -27 c-6 -11 -15 -20 -20 -20 -6 0 -2 9
7 20 10 11 19 20 21 20 1 0 -2 -9 -8 -20z m103 7 c3 -8 2 -20 -3 -26 -5 -9 -7
-4 -7 13 0 29 2 32 10 13z m82 5 c-11 -4 -20 -16 -20 -26 0 -21 -39 -33 -50
-16 -4 6 1 7 11 3 13 -5 15 -3 9 8 -7 12 -6 12 9 -1 16 -13 18 -12 16 5 -4 32
-1 35 23 34 20 -1 21 -1 2 -7z m43 -17 c-3 -3 -9 2 -12 12 -6 14 -5 15 5 6 7
-7 10 -15 7 -18z m68 -3 c-18 -16 -18 -16 -6 6 6 13 14 21 18 18 3 -4 -2 -14
-12 -24z m293 16 c-3 -27 1 -39 13 -32 7 5 8 3 3 -6 -6 -10 -11 -9 -21 4 -7
10 -10 24 -7 32 6 17 14 18 12 2z m58 -19 c-3 -10 1 -20 9 -22 8 -3 7 -4 -3
-3 -13 1 -17 8 -15 26 3 20 1 23 -9 13 -7 -7 -17 -13 -23 -13 -5 0 -1 6 9 14
24 17 38 10 32 -15z m-379 -5 c0 -17 -3 -22 -8 -13 -5 6 -6 18 -3 26 8 19 11
16 11 -13z m416 11 c3 -8 1 -15 -4 -15 -6 0 -10 7 -10 15 0 8 2 15 4 15 2 0 6
-7 10 -15z m-792 -2 c-6 -2 -9 -10 -6 -15 4 -7 2 -8 -5 -4 -13 9 -5 26 12 25
9 0 8 -2 -1 -6z m57 -3 c-6 -5 -18 -6 -26 -3 -19 8 -16 11 13 11 17 0 22 -3
13 -8z m101 5 c0 -7 -30 -13 -34 -7 -3 4 4 9 15 9 10 1 19 0 19 -2z m153 -12
c-5 -12 -3 -14 7 -8 9 5 11 4 6 -4 -4 -6 -12 -9 -17 -6 -12 8 -12 35 1 35 5 0
6 -7 3 -17z m541 9 c2 -4 -5 -9 -17 -9 -17 -2 -19 0 -7 7 18 12 18 12 24 2z
m-179 -23 c-4 -5 -14 -8 -23 -8 -15 1 -15 2 1 6 9 2 14 9 11 15 -4 7 -2 8 5 4
6 -4 9 -12 6 -17z m-639 -12 c1 -9 -2 -17 -8 -17 -6 0 -8 6 -5 14 3 8 2 17 -4
20 -5 2 -4 3 2 2 7 -1 13 -10 15 -19z m44 1 c10 -21 10 -21 -3 -6 -8 10 -18
14 -22 10 -5 -4 -5 -1 -1 6 10 17 14 15 26 -10z m46 10 c4 -7 3 -8 -4 -4 -8 5
-12 -1 -12 -14 0 -13 4 -19 12 -14 7 4 8 3 4 -5 -10 -15 -26 -4 -26 18 0 28
14 39 26 19z m232 -13 c-3 -3 -9 2 -12 12 -6 14 -5 15 5 6 7 -7 10 -15 7 -18z
m-198 -5 c0 -5 -4 -10 -10 -10 -5 0 -10 5 -10 10 0 6 5 10 10 10 6 0 10 -4 10
-10z m40 0 c0 -5 -4 -10 -10 -10 -5 0 -10 5 -10 10 0 6 5 10 10 10 6 0 10 -4
10 -10z m35 -8 c-3 -3 -11 0 -18 7 -9 10 -8 11 6 5 10 -3 15 -9 12 -12z m70 8
c3 -5 2 -10 -4 -10 -5 0 -13 5 -16 10 -3 6 -2 10 4 10 5 0 13 -4 16 -10z m26
-17 c-12 -20 -14 -14 -5 12 4 9 9 14 11 11 3 -2 0 -13 -6 -23z m86 21 c-3 -3
-12 -4 -19 -1 -8 3 -5 6 6 6 11 1 17 -2 13 -5z m288 -23 c-6 -5 -25 10 -25 20
0 5 6 4 14 -3 8 -7 12 -15 11 -17z m45 19 c12 -7 10 -9 -8 -7 -12 0 -22 5 -22
9 0 11 12 10 30 -2z m-495 -21 c-6 -16 -4 -20 6 -14 8 5 10 4 6 0 -4 -5 -14
-10 -22 -11 -11 -2 -12 3 -3 22 14 30 22 31 13 3z m420 2 c3 -5 0 -13 -6 -17
-7 -4 -9 -3 -5 4 3 5 0 13 -6 15 -9 4 -10 6 -1 6 6 1 14 -3 18 -8z m-495 -11
c0 -5 -7 -7 -15 -4 -8 4 -15 8 -15 10 0 2 7 4 15 4 8 0 15 -4 15 -10z m130
-10 c0 -5 -7 -7 -15 -4 -8 4 -15 8 -15 10 0 2 7 4 15 4 8 0 15 -4 15 -10z
m100 0 c-8 -5 -19 -10 -25 -10 -5 0 -3 5 5 10 8 5 20 10 25 10 6 0 3 -5 -5
-10z"/>
<path d="M820 89 c0 -5 5 -7 10 -4 6 3 10 8 10 11 0 2 -4 4 -10 4 -5 0 -10 -5
-10 -11z"/>
<path d="M905 90 c-3 -5 -1 -10 4 -10 6 0 11 5 11 10 0 6 -2 10 -4 10 -3 0 -8
-4 -11 -10z"/>
</g>
</svg>
